<svg width="38" height="38" viewBox="0 0 38 38" fill="none" xmlns="http://www.w3.org/2000/svg">
<path d="M27.207 15.8865C27.2413 15.8429 27.2667 15.793 27.2818 15.7396C27.2969 15.6862 27.3012 15.6303 27.2947 15.5752C27.2882 15.5201 27.2709 15.4668 27.2438 15.4184C27.2166 15.37 27.1802 15.3274 27.1367 15.2931C27.0931 15.2587 27.0432 15.2333 26.9897 15.2182C26.9363 15.2032 26.8805 15.1988 26.8254 15.2053C26.7703 15.2119 26.717 15.2292 26.6686 15.2563C26.6202 15.2834 26.5776 15.3198 26.5432 15.3634C26.5095 15.4084 23.0895 19.7031 19.0001 19.7031C14.9107 19.7031 11.4907 15.4084 11.457 15.3634C11.3873 15.2759 11.2858 15.2194 11.1747 15.2062C11.0636 15.193 10.9518 15.2243 10.8635 15.2931C10.2617 15.7346 11.5751 16.7837 12.9223 18.0128L11.741 19.194C11.6834 19.2535 11.6445 19.3286 11.629 19.4099C11.6135 19.4912 11.6221 19.5753 11.6538 19.6519C11.6855 19.7284 11.7388 19.7939 11.8073 19.8405C11.8758 19.8871 11.9564 19.9126 12.0392 19.914C12.2867 20.0012 13.4088 18.6596 13.5945 18.5359C14.9304 19.5146 16.6573 20.4146 18.5782 20.5328V22.375C18.5782 22.4868 18.6227 22.5941 18.7018 22.6733C18.7809 22.7524 18.8882 22.7968 19.0001 22.7968C19.112 22.7968 19.2193 22.7524 19.2984 22.6733C19.3775 22.5941 19.422 22.4868 19.422 22.375V20.5328C21.3429 20.4146 23.0782 19.5146 24.4057 18.5359C24.5998 18.6681 25.7107 19.9984 25.961 19.914C26.0438 19.9126 26.1244 19.8871 26.1929 19.8405C26.2614 19.7939 26.3147 19.7284 26.3464 19.6519C26.3781 19.5753 26.3867 19.4912 26.3712 19.4099C26.3557 19.3286 26.3168 19.2535 26.2592 19.194L25.0779 18.0128C25.8569 17.377 26.5702 16.6647 27.207 15.8865Z" fill="#777B8B"/>
</svg>
