<svg width="38" height="38" viewBox="0 0 38 38" fill="none" xmlns="http://www.w3.org/2000/svg">
<path d="M27.2068 20.5666C26.5701 19.7874 25.8568 19.0742 25.0777 18.4375L26.2589 17.2562C26.3335 17.1763 26.374 17.0705 26.3721 16.9612C26.3702 16.8519 26.3259 16.7476 26.2486 16.6703C26.1713 16.593 26.067 16.5488 25.9577 16.5468C25.8484 16.5449 25.7427 16.5855 25.6627 16.66L24.4055 17.9144C23.0696 16.9356 21.3427 16.0356 19.4218 15.9175V14.0781C19.4218 13.9662 19.3773 13.8589 19.2982 13.7798C19.2191 13.7007 19.1118 13.6562 18.9999 13.6562C18.888 13.6562 18.7807 13.7007 18.7016 13.7798C18.6225 13.8589 18.578 13.9662 18.578 14.0781V15.9203C16.6571 16.0384 14.9218 16.9384 13.5943 17.9172L12.3371 16.6628C12.2984 16.6214 12.2519 16.5881 12.2001 16.5651C12.1484 16.542 12.0925 16.5296 12.0359 16.5286C11.9792 16.5276 11.9229 16.538 11.8704 16.5592C11.8179 16.5805 11.7702 16.612 11.7301 16.6521C11.69 16.6922 11.6585 16.7399 11.6372 16.7924C11.616 16.8449 11.6056 16.9012 11.6066 16.9579C11.6076 17.0145 11.62 17.0704 11.6431 17.1221C11.6661 17.1739 11.6994 17.2204 11.7408 17.2591L12.9221 18.4403C11.5664 19.6722 10.2811 20.7213 10.8633 21.16C10.9515 21.2288 11.0634 21.26 11.1745 21.2469C11.2856 21.2337 11.387 21.1772 11.4568 21.0897C11.4905 21.0447 14.9105 16.75 18.9999 16.75C23.0893 16.75 26.5093 21.0447 26.543 21.0897C26.6124 21.1777 26.7139 21.2346 26.8252 21.2477C26.9365 21.2609 27.0484 21.2294 27.1364 21.16C27.2245 21.0906 27.2813 20.9891 27.2945 20.8778C27.3077 20.7666 27.2761 20.6546 27.2068 20.5666Z" fill="#777B8B"/>
<path d="M18.9998 17.3125C14.3536 17.4616 14.3536 24.1975 18.9998 24.3438C23.6461 24.1947 23.6461 17.4587 18.9998 17.3125ZM18.9998 19.4444C18.6331 19.4451 18.2815 19.5911 18.0222 19.8505C17.7628 20.1098 17.6168 20.4614 17.6161 20.8281C17.6161 20.94 17.5716 21.0473 17.4925 21.1264C17.4134 21.2056 17.3061 21.25 17.1942 21.25C17.0823 21.25 16.975 21.2056 16.8959 21.1264C16.8168 21.0473 16.7723 20.94 16.7723 20.8281C16.7731 20.2376 17.008 19.6714 17.4256 19.2539C17.8431 18.8363 18.4093 18.6014 18.9998 18.6006C19.1117 18.6006 19.219 18.6451 19.2981 18.7242C19.3773 18.8033 19.4217 18.9106 19.4217 19.0225C19.4217 19.1344 19.3773 19.2417 19.2981 19.3208C19.219 19.3999 19.1117 19.4444 18.9998 19.4444Z" fill="#777B8B"/>
</svg>
