<svg width="175" height="22" viewBox="0 0 175 22" fill="none" xmlns="http://www.w3.org/2000/svg">
<path d="M10.2094 21.4258C4.10898 21.4258 0.44873 18.9857 0.44873 10.6236C0.44873 2.58895 4.10898 0 10.2094 0C15.8039 0 19.2558 1.96403 19.7617 7.55856H13.6613C13.4233 5.23743 12.1139 4.7613 10.2094 4.7613C8.12632 4.7613 6.54914 5.26718 6.54914 8.86791V12.4984C6.54914 16.0991 8.0668 16.6645 10.2094 16.6645C12.0841 16.6645 13.3637 16.0991 13.6911 13.8078H19.7915C19.1963 19.3428 15.8039 21.4258 10.2094 21.4258Z" fill="white"/>
<path d="M26.5601 0.446371H35.1899L41.5284 20.9795H35.2494L34.0591 17.0514H26.7981L25.6376 20.9795H20.2216L26.5601 0.446371ZM30.4286 4.99936L28.1372 12.5877H32.72L30.4286 4.99936Z" fill="white"/>
<path d="M60.5045 14.4029C60.5045 19.5808 57.2014 21.4258 51.6069 21.4258C46.0123 21.4258 42.6199 19.4618 42.4414 14.3136H48.5418C48.6013 16.3967 49.7916 16.8133 51.6069 16.8133C53.5411 16.8133 54.7612 16.486 54.7612 14.8195C54.7612 11.189 42.7687 15.3849 42.7687 6.57654C42.7687 1.845 46.0718 0 51.339 0C56.6062 0 60.0582 1.845 60.1474 6.57654H54.047C53.9577 4.93984 52.9162 4.61251 51.339 4.61251C49.6131 4.61251 48.4823 4.93984 48.4823 6.51702C48.4823 9.93921 60.5045 6.30872 60.5045 14.4029Z" fill="white"/>
<path d="M69.276 20.9795H63.3243V0.446371H69.276V20.9795Z" fill="white"/>
<path d="M81.0397 0.446371L86.5747 13.3614V0.446371H92.0799V20.9795H83.8965L78.3615 8.0942V20.9795H72.8562V0.446371H81.0397Z" fill="white"/>
<path d="M116.024 10.4153C116.024 18.9559 112.215 21.4258 105.46 21.4258C98.7048 21.4258 94.8958 18.9559 94.8958 10.4153C94.8958 2.41041 98.7048 0 105.46 0C112.215 0 116.024 2.41041 116.024 10.4153ZM109.924 12.1413V9.22501C109.924 5.77307 108.406 4.7613 105.46 4.7613C102.514 4.7613 100.996 5.77307 100.996 9.22501V12.1413C100.996 15.9206 102.514 16.6645 105.46 16.6645C108.406 16.6645 109.924 15.9206 109.924 12.1413Z" fill="white"/>
<path d="M136.565 14.8791C136.565 18.7476 134.244 20.9795 129.602 20.9795H118.859V0.446411H129.9C133.798 0.446411 136.089 2.20214 136.089 5.44577C136.089 7.40981 135.286 9.25481 132.637 10.1178C135.524 10.8915 136.565 12.677 136.565 14.8791ZM130.465 14.1351C130.465 13.0043 129.602 12.3199 128.114 12.3199H124.662V16.8134H128.114C129.602 16.8134 130.465 16.1587 130.465 14.9684V14.1351ZM129.989 6.21948C129.989 5.20771 129.185 4.61255 127.846 4.61255H124.662V8.51086H127.846C129.185 8.51086 129.989 7.9157 129.989 6.81465V6.21948Z" fill="#FFF500"/>
<path d="M154.854 20.9795H139.231V0.446411H154.824V5.3565H145.182V8.03473H152.354V12.796H145.182V16.0694H154.854V20.9795Z" fill="#FFF500"/>
<path d="M175 5.50529H168.781V20.9795H162.829V5.50529H156.639V0.446411H175V5.50529Z" fill="#FFF500"/>
</svg>
